<svg xmlns="http://www.w3.org/2000/svg" viewBox="0 0 128 128" role="img" aria-labelledby="title">
    <title id="title">Living Faith emblem</title>
    <defs>
        <linearGradient id="flameGradient" x1="0" x2="0" y1="0" y2="1">
            <stop offset="0%" stop-color="#ff6347"/>
            <stop offset="45%" stop-color="#f5362d"/>
            <stop offset="100%" stop-color="#c40808"/>
        </linearGradient>
        <linearGradient id="glowGradient" x1="0" x2="1" y1="0" y2="1">
            <stop offset="0%" stop-color="#ffd4db" stop-opacity=".8"/>
            <stop offset="100%" stop-color="#f7a7b3" stop-opacity=".2"/>
        </linearGradient>
    </defs>
    <g transform="translate(0 -4)">
        <path fill="url(#glowGradient)" d="M15 56c8-24 32-42 49-42s41 18 49 42-10 58-49 58S7 80 15 56z"/>
        <path fill="url(#flameGradient)" d="M63.6 8c6.8 13.4 4.8 23.8-6.1 31.3 10.2-1.7 17.8-6.7 22.9-15 2.8 7.5 2 14.2-2.6 20.4 8-3.3 12.6-9.7 13.7-19.4 6.6 8.4 7.5 18 2.7 28.7-6.4 14-18.7 20.5-36.7 19.7-19.4-.9-31.3-13.6-35.7-37.8C19.4 21.8 33 12 45 17.5c-3.2 5-3.5 10.5-.7 16.5C52.6 27.1 59 18.7 63.6 8z"/>
        <circle cx="64" cy="80" r="38" fill="#fff" stroke="#e1393e" stroke-width="6"/>
        <path fill="#0c0f18" d="M42 63c10-6 24-6 34 0l3 2-6 9-11-2-11 2-6-9 3-2z" opacity=".88"/>
        <path fill="#0c0f18" d="M30 83c0 11 8 21 19 25-4-9-3-17 3-23-11-3-18-1-22 3zm68 0c-4-4-11-6-22-3 6 6 7 14 3 23 11-4 19-14 19-25z" opacity=".88"/>
        <circle cx="64" cy="80" r="6" fill="#e1393e"/>
    </g>
</svg>
